{"title":"Smurfs 2 2013 TS x264 AC3 - SiNDK8","uid":8944689,"size":1640473858,"categoryP":"video","categoryS":"movies","magnet":"?xt=urn:btih:72302dc7cce3c0c26efedd6b69aa2dac90fab6a9&amp;dn=Smurfs+2+2013+TS+x264+AC3+-+SiNDK8&amp;tr=udp%3A%2F%2Ftracker.openbittorrent.com%3A80&amp;tr=udp%3A%2F%2Fopen.demonii.com%3A1337&amp;tr=udp%3A%2F%2Ftracker.coppersurfer.tk%3A6969&amp;tr=udp%3A%2F%2Fexodus.desync.com%3A6969","seeders":2,"leechers":0,"uploader":"TeX","files":3,"time":1379746274,"description":"[IMG]http://i.imgur.com/nQbl4kY.jpg[/IMG]\n\n\n~~~~~~~~~~~~~~~~~~~~~~~~~~~~~~~~~~~~~~~~~~~~~~~~~~~~~~\n                    GENERAL INFO\n~~~~~~~~~~~~~~~~~~~~~~~~~~~~~~~~~~~~~~~~~~~~~~~~~~~~~~\n\nTITLE   : Smurfs 2 2013 TS x264 AC3 - SiNDK8\nIMDB    : http://www.imdb.com/title/tt2017020/\nRATING  : 5.0/10 \nSOURCE  : VIDEO: SmY (Thx)\n        : AUDIO: BL4CKP34RL-EcHo LiNE (Thx Guys)\nfORMAT  : MKV\nSIZE    : 1.53 GiB\n\n~~~~~~~~~~~~~~~~~~~~~~~~~~~~~~~~~~~~~~~~~~~~~~~~~~~~~~\n                     MEDIA INFO\n~~~~~~~~~~~~~~~~~~~~~~~~~~~~~~~~~~~~~~~~~~~~~~~~~~~~~~\n\n:: VIDEO ::\n\nFormat                                   : AVC\nFormat/Info                              : Advanced Video Codec\nFormat profile                           : &lt;a class=&quot;__cf_email__&quot; href=&quot;/cdn-cgi/l/email-protection&quot; data-cfemail=&quot;2860414f4068641c0619&quot;&gt;[email&amp;#160;protected]&lt;/a&gt;&lt;script cf-hash='f9e31' type=&quot;text/javascript&quot;&gt;\n/* &lt;![CDATA[ */!function(){try{var t=&quot;currentScript&quot;in document?document.currentScript:function(){for(var t=document.getElementsByTagName(&quot;script&quot;),e=t.length;e--;)if(t[e].getAttribute(&quot;cf-hash&quot;))return t[e]}();if(t&amp;&amp;t.previousSibling){var e,r,n,i,c=t.previousSibling,a=c.getAttribute(&quot;data-cfemail&quot;);if(a){for(e=&quot;&quot;,r=parseInt(a.substr(0,2),16),n=2;a.length-n;n+=2)i=parseInt(a.substr(n,2),16)^r,e+=String.fromCharCode(i);e=document.createTextNode(e),c.parentNode.replaceChild(e,c)}}}catch(u){}}();/* ]]&gt; */&lt;/script&gt;\nFormat settings, CABAC                   : Yes\nFormat settings, ReFrames                : 5 frames\nCodec ID                                 : V_MPEG4/ISO/AVC\nDuration                                 : 1h 40mn\nBit rate                                 : 1 999 Kbps\nWidth                                    : 712 pixels\nHeight                                   : 360 pixels\nDisplay aspect ratio                     : 1.978\nFrame rate mode                          : Constant\nFrame rate                               : 29.970 fps\nColor space                              : YUV\nChroma subsampling                       : 4:2:0\nBit depth                                : 8 bits\nScan type                                : Progressive\nBits/(Pixel*Frame)                       : 0.260\nStream size                              : 1.36 GiB (89%)\n\n:: AUDIO ::\n\nFormat                                   : AC-3\nFormat/Info                              : Audio Coding 3\nMode extension                           : CM (complete main)\nFormat settings, Endianness              : Big\nCodec ID                                 : A_AC3\nDuration                                 : 1h 40mn\nBit rate mode                            : Constant\nBit rate                                 : 192 Kbps\nChannel count                            : 2 channels\nChannel positions                        : Front: L R\nSampling rate                            : 44.1 KHz\nBit depth                                : 16 bits\nCompression mode                         : Lossy\nStream size                              : 138 MiB (9%)\nDefault                                  : Yes\nForced                                   : No\n\n:: SUBTITLES ::\n\nNone\n\n\n~~~~~~~~~~~~~~~~~~~~~~~~~~~~~~~~~~~~~~~~~~~~~~~~~~~~~\n                       SCREENS\n~~~~~~~~~~~~~~~~~~~~~~~~~~~~~~~~~~~~~~~~~~~~~~~~~~~~~\n[IMG]http://i.imgur.com/r0tJkHI.png[/IMG]\n[IMG]http://i.imgur.com/x9gSUK9.png[/IMG]\n[IMG]http://i.imgur.com/Dwz08sd.png[/IMG]\n[IMG]http://i.imgur.com/dXi5k7p.png[/IMG]\n[IMG]http://i.imgur.com/ZIQjIQo.png[/IMG]\n[IMG]http://i.imgur.com/8MpwXCP.png[/IMG]\n[IMG]http://i.imgur.com/7zp0fJk.png[/IMG]\n\n~~~~~~~~~~~~~~~~~~~~~~~~~~~~~~~~~~~~~~~~~~~~~~~~~~~~~\n                       GREETZ\n~~~~~~~~~~~~~~~~~~~~~~~~~~~~~~~~~~~~~~~~~~~~~~~~~~~~~\nALL QUALITY ENCODERS THAT TRULY CARE\n\n~~~~~~~~~~~~~~~~~~~~~~~~~~~~~~~~~~~~~~~~~~~~~~~~~~~~~\n@@@@@@@@@@@@@@@@@@@@@@@@@@@@@@@@@@@@@@@@@\n~~~~~~~~~~~~~~~~~~~~~~~~~~~~~~~~~~~~~~~~~~~~~~~~~~~~~\n[IMG]http://i.imgur.com/XNiuYaI.jpg[/IMG]\n","torrent":{"xt":"urn:btih:72302dc7cce3c0c26efedd6b69aa2dac90fab6a9","amp;dn":"Smurfs+2+2013+TS+x264+AC3+-+SiNDK8","amp;tr":["udp%3A%2F%2Ftracker.openbittorrent.com%3A80","udp%3A%2F%2Fopen.demonii.com%3A1337","udp%3A%2F%2Ftracker.coppersurfer.tk%3A6969","udp%3A%2F%2Fexodus.desync.com%3A6969"],"infoHash":"72302dc7cce3c0c26efedd6b69aa2dac90fab6a9","infoHashBuffer":{"type":"Buffer","data":[114,48,45,199,204,227,192,194,110,254,221,107,105,170,45,172,144,250,182,169]},"announce":[],"urlList":[]}}